<svg xmlns="http://www.w3.org/2000/svg" width="680" height="420" viewBox="0 0 680 420" role="img" aria-label="Fresh lawn and yard care illustration"><defs><linearGradient id="sky" x1="0" x2="0" y1="0" y2="1"><stop stop-color="#eef8ee"/><stop offset=".65" stop-color="#fffdf6"/><stop offset="1" stop-color="#f7f1df"/></linearGradient></defs><rect width="680" height="420" rx="34" fill="url(#sky)"/><circle cx="548" cy="78" r="48" fill="#c8e67a"/><path d="M0 286c70-28 137-35 201-20 98 24 159 43 276 11 74-20 130-8 203 27v116H0z" fill="#4f9d46"/><path d="M0 328c80-21 156-17 228 9 88 32 163 26 241-5 77-31 144-27 211 10v78H0z" fill="#2f7d32"/><path d="M88 274h370" stroke="#132016" stroke-width="10" stroke-linecap="round" opacity=".18"/><rect x="158" y="164" width="220" height="92" rx="15" fill="#fffdf6" stroke="#dfe7dc" stroke-width="4"/><path d="M142 164l126-82 126 82z" fill="#f0c35a" stroke="#d8a637" stroke-width="4"/><rect x="240" y="202" width="50" height="54" rx="8" fill="#2f7d32"/><rect x="312" y="194" width="38" height="34" rx="6" fill="#cde9ff"/><path d="M452 278c7-50 30-81 65-91 38-11 76 11 94 55" stroke="#132016" stroke-width="9" stroke-linecap="round" fill="none" opacity=".38"/><rect x="500" y="245" width="92" height="34" rx="17" fill="#132016" opacity=".75"/><circle cx="521" cy="284" r="16" fill="#132016"/><circle cx="571" cy="284" r="16" fill="#132016"/><path d="M504 245l-22-42" stroke="#132016" stroke-width="8" stroke-linecap="round" opacity=".75"/><path d="M88 338c78-18 149-17 213 2M382 341c86-23 158-18 225 13" stroke="#fffdf6" stroke-width="9" stroke-linecap="round" opacity=".35"/></svg>
